<svg width="22" height="20" viewBox="0 0 22 20" fill="none" xmlns="http://www.w3.org/2000/svg">
<path d="M1.45 0.800049C1.05 0.800049 0.75 1.10005 0.75 1.60005V10.6C0.75 12.1 1.95 13.3 3.45 13.3H4.15V17C4.15 18.2001 5.15 19.2 6.35 19.2H12.85C14.05 19.2 15.05 18.2001 15.05 17V13.3H15.75C17.25 13.3 18.45 12.1 18.45 10.6V1.60005C18.75 1.10005 18.45 0.800049 18.05 0.800049C17.65 0.800049 17.35 1.10005 17.35 1.60005V10.6C17.35 11.3 16.75 11.8 16.15 11.8H15.45V9.80005C15.85 9.70005 16.05 9.20005 15.95 8.80005C15.85 8.50005 15.55 8.30005 15.25 8.30005H4.55C4.05 8.30005 3.75 8.60005 3.75 9.10005C3.75 9.40005 3.95 9.70005 4.25 9.80005V11.8H3.55C2.85 11.8 2.35 11.2 2.35 10.6V1.60005C2.25 1.10005 1.95 0.800049 1.45 0.800049C1.55 0.800049 1.45 0.800049 1.45 0.800049ZM20.45 0.800049C20.05 0.800049 19.75 1.10005 19.75 1.60005V11.1C19.75 11.5 20.05 11.9 20.45 11.9C20.85 11.9 21.25 11.6 21.25 11.2V1.60005C21.25 1.10005 20.95 0.800049 20.45 0.800049C20.55 0.800049 20.45 0.800049 20.45 0.800049ZM5.75 0.800049C5.15 0.800049 4.75 1.30005 4.75 1.80005C4.75 2.30005 5.15 2.80005 5.75 2.80005C6.35 2.80005 6.75 2.40005 6.75 1.80005C6.75 1.20005 6.35 0.800049 5.75 0.800049ZM9.75 0.800049C9.15 0.800049 8.75 1.30005 8.75 1.80005C8.75 2.30005 9.15 2.80005 9.75 2.80005C10.35 2.80005 10.75 2.40005 10.75 1.80005C10.75 1.20005 10.35 0.800049 9.75 0.800049ZM13.75 0.800049C13.15 0.800049 12.75 1.20005 12.75 1.80005C12.75 2.40005 13.15 2.80005 13.75 2.80005C14.35 2.80005 14.75 2.40005 14.75 1.80005C14.75 1.20005 14.35 0.800049 13.75 0.800049ZM5.75 4.30005C5.15 4.30005 4.75 4.70005 4.75 5.30005C4.75 5.90005 5.15 6.30005 5.75 6.30005C6.35 6.30005 6.75 5.90005 6.75 5.30005C6.75 4.70005 6.35 4.30005 5.75 4.30005ZM9.75 4.30005C9.15 4.30005 8.75 4.70005 8.75 5.30005C8.75 5.90005 9.15 6.30005 9.75 6.30005C10.35 6.30005 10.75 5.90005 10.75 5.30005C10.75 4.70005 10.35 4.30005 9.75 4.30005ZM13.75 4.30005C13.15 4.30005 12.75 4.70005 12.75 5.30005C12.75 5.90005 13.15 6.30005 13.75 6.30005C14.35 6.30005 14.75 5.90005 14.75 5.30005C14.75 4.70005 14.35 4.30005 13.75 4.30005ZM5.75 9.80005H10.25V17.8H6.55C6.05 17.8 5.75 17.5 5.75 17.1V12.7C5.75 12.6 5.75 12.5 5.75 12.5V9.80005ZM12.25 9.80005H13.75V12.4C13.75 12.5 13.75 12.6 13.75 12.6V17C13.75 17.4 13.45 17.7 13.05 17.7H12.35V9.80005H12.25Z" fill="white"/>
</svg>
