<svg width="18" height="18" viewBox="0 0 18 18" fill="none" xmlns="http://www.w3.org/2000/svg">
<path d="M2.3 0C1.1 0 0.1 0.9 0 2.1C0 2.2 0 2.2 0 2.3V3.8V4.5V15.7C0 17 1 18 2.3 18H15.8C17 18 18 17 18 15.8V5.3C18 4 17 3 15.8 3H2.3C1.8 3 1.5 2.7 1.5 2.3C1.5 1.9 1.8 1.6 2.2 1.6H14.7C15.1 1.6 15.5 1.3 15.5 0.9C15.5 0.5 15.2 0 14.8 0H2.3ZM1.5 4.5H2.2H15.7C16.1 4.5 16.4 4.8 16.4 5.2V15.7C16.4 16.1 16.1 16.4 15.7 16.4H2.3C1.9 16.4 1.6 16.1 1.6 15.7V4.5H1.5ZM13.8 9C13.1 9 12.6 9.6 12.6 10.2C12.6 10.9 13.2 11.4 13.8 11.4C14.4 11.4 15 10.8 15 10.2C15 9.6 14.4 9 13.8 9Z" fill="white"/>
</svg>
