<svg width="20" height="20" viewBox="0 0 20 20" fill="none" xmlns="http://www.w3.org/2000/svg">
<path d="M10.8498 0.78064C9.94981 0.78064 9.1498 1.28064 8.7498 2.08064H2.7498C1.3498 2.08064 0.0498047 3.28064 0.0498047 4.78064V6.78064C0.0498047 7.18064 0.349805 7.58064 0.749805 7.58064C1.1498 7.58064 1.5498 7.28064 1.5498 6.88064V4.78064C1.5498 4.08064 2.1498 3.58064 2.7498 3.58064H8.4498V16.5806H2.8498C2.1498 16.5806 1.6498 15.9806 1.6498 15.3806V12.7806C1.6498 12.3806 1.3498 11.9806 0.949805 11.9806C0.349805 12.0806 0.0498047 12.3806 0.0498047 12.7806V15.2806C0.0498047 16.6806 1.1498 17.8806 2.5498 17.9806C2.5498 18.5806 2.9498 18.9806 3.5498 18.9806C4.1498 18.9806 4.5498 18.5806 4.5498 17.9806H8.7498C9.1498 18.7806 10.1498 19.3806 11.0498 19.1806L15.6498 18.4806C15.8498 18.7806 16.1498 18.9806 16.4498 18.9806C16.8498 18.9806 17.2498 18.6806 17.4498 18.2806H17.6498C18.9498 18.0806 19.9498 16.8806 19.9498 15.5806V4.48064C19.9498 3.08064 18.9498 1.98064 17.6498 1.78064L11.0498 0.78064C11.0498 0.78064 10.9498 0.78064 10.8498 0.78064ZM10.7498 2.28064C10.8498 2.28064 10.8498 2.28064 10.9498 2.28064L17.5498 3.28064C18.1498 3.38064 18.6498 3.88064 18.6498 4.48064V15.5806C18.6498 16.1806 18.2498 16.6806 17.5498 16.7806L10.9498 17.7806C10.5498 17.8806 10.2498 17.5806 10.1498 17.2806C10.1498 17.1806 10.1498 17.1806 10.1498 17.0806V3.08064C10.0498 2.58064 10.3498 2.28064 10.7498 2.28064ZM14.5498 5.58064C14.0498 5.58064 13.5498 5.78064 13.2498 6.08064C12.9498 6.38064 12.6498 6.78064 12.5498 7.18064C12.2498 7.98064 12.0498 8.98064 12.0498 10.0806C12.0498 11.1806 12.1498 12.0806 12.5498 12.9806C12.7498 13.3806 12.9498 13.7806 13.2498 14.0806C13.5498 14.3806 14.0498 14.5806 14.5498 14.5806C15.0498 14.5806 15.5498 14.3806 15.8498 14.0806C16.1498 13.7806 16.4498 13.3806 16.5498 12.9806C16.8498 12.1806 17.0498 11.1806 17.0498 10.0806C17.0498 8.98064 16.9498 8.08064 16.5498 7.18064C16.3498 6.78064 16.1498 6.38064 15.8498 6.08064C15.5498 5.78064 15.0498 5.58064 14.5498 5.58064ZM4.3498 6.58064C3.9498 6.58064 3.6498 6.88064 3.6498 7.38064C3.6498 7.58064 3.7498 7.78064 3.8498 7.88064L5.0498 9.08064H0.849805C0.349805 9.08064 0.0498047 9.38064 0.0498047 9.78064C0.0498047 10.1806 0.349805 10.5806 0.749805 10.5806H5.0498L3.7498 11.7806C3.4498 12.0806 3.4498 12.5806 3.7498 12.8806C4.0498 13.1806 4.5498 13.1806 4.8498 12.8806L7.3498 10.3806C7.64981 10.0806 7.64981 9.58064 7.3498 9.28064L4.8498 6.78064C4.64981 6.58064 4.5498 6.58064 4.3498 6.58064ZM14.5498 7.08064C14.6498 7.08064 14.6498 7.08064 14.8498 7.18064C14.9498 7.28064 15.0498 7.48064 15.1498 7.78064C15.3498 8.38064 15.5498 9.18064 15.5498 10.0806C15.5498 10.9806 15.4498 11.7806 15.1498 12.3806C15.0498 12.6806 14.8498 12.8806 14.7498 12.9806C14.6498 13.0806 14.5498 13.0806 14.4498 13.0806C14.3498 13.0806 14.3498 13.0806 14.1498 12.9806C14.0498 12.8806 13.9498 12.6806 13.7498 12.3806C13.5498 11.7806 13.3498 10.9806 13.3498 10.0806C13.3498 9.18064 13.4498 8.38064 13.7498 7.78064C13.8498 7.48064 14.0498 7.28064 14.1498 7.18064C14.4498 7.08064 14.4498 7.08064 14.5498 7.08064Z" fill="white"/>
</svg>
