<svg width="22" height="18" viewBox="0 0 22 18" fill="none" xmlns="http://www.w3.org/2000/svg">
<path d="M7.30678 0.5C5.80678 0.5 4.50678 1.7 4.50678 3.2V5.9L3.60678 6.2C2.70678 6.5 2.00678 7 1.50678 7.8L0.306784 9.8C0.106784 10.1 0.206784 10.6 0.506784 10.8C0.806784 11 1.30678 10.9 1.50678 10.6L2.70678 8.6C3.00678 8.1 3.40678 7.8 4.00678 7.6L4.50678 7.5V10.7C4.50678 11 4.50678 11.2 4.60678 11.4C4.70678 11.8 5.20678 12 5.60678 11.9C5.70678 11.9 5.70678 11.9 5.80678 11.8L10.2068 9.1C10.5068 8.9 10.9068 8.9 11.2068 9.2C11.5068 9.5 11.5068 10 11.2068 10.3L9.80678 11.6C9.70678 11.6 9.70678 11.7 9.70678 11.7L6.00678 15.1C5.40678 15.6 4.60678 16 3.80678 16H0.906784C0.506784 16 0.106784 16.3 0.106784 16.7C0.00678382 17.2 0.306784 17.5 0.706784 17.5H3.10678H3.20678H8.10678C9.30678 17.5 10.4068 17.1 11.3068 16.3L14.9068 13H19.2068C20.7068 13 21.9068 11.8 21.9068 10.3V3.3C22.0068 1.7 20.8068 0.5 19.3068 0.5H7.30678ZM7.30678 2H19.3068C20.0068 2 20.5068 2.6 20.5068 3.2V3.9H6.00678V3.2C6.00678 2.6 6.60678 2 7.30678 2ZM6.00678 5.5H20.5068V10.2C20.5068 10.9 19.9068 11.4 19.3068 11.4H14.8068H14.7068H14.6068H12.1068C13.0068 10.5 13.1068 9 12.1068 8.1C11.3068 7.3 10.1068 7.2 9.20678 7.8L6.00678 9.9V6.6C6.00678 6.5 6.00678 6.4 6.00678 6.4V5.5ZM10.5068 13H12.8068L10.5068 15.1C9.90678 15.6 9.10678 16 8.30678 16H7.30678L10.5068 13Z" fill="white"/>
</svg>
