<svg width="24" height="18" viewBox="0 0 24 18" fill="none" xmlns="http://www.w3.org/2000/svg">
<path d="M15.7453 0.799805H15.6453H13.2453C12.8453 0.799805 12.4453 1.0998 12.4453 1.4998C12.4453 1.8998 12.7453 2.2998 13.1453 2.2998H15.0453C15.3453 2.9998 15.9453 5.0998 15.9453 7.5998C15.9453 8.89981 15.6453 9.7998 15.3453 10.1998C15.0453 10.6998 14.6453 10.7998 14.1453 10.7998H10.7453C10.2453 10.7998 9.94531 10.4998 9.94531 10.0998V8.0998V2.5998C9.94531 2.0998 9.64531 1.7998 9.24531 1.7998H6.34531H6.24531H6.14531H3.24531C2.74531 1.7998 2.44531 2.0998 2.44531 2.5998V7.3998H1.74531C1.24531 7.2998 0.945312 7.5998 0.945312 7.9998C0.945312 8.4998 1.24531 8.7998 1.64531 8.7998H2.54531C2.24531 9.39981 1.94531 10.1998 1.94531 11.0998C1.94531 11.2998 2.04531 11.4998 2.14531 11.5998C2.14531 11.5998 2.64531 12.1998 3.54531 12.8998C3.24531 13.3998 2.94531 13.8998 2.94531 14.4998C2.94531 15.9998 4.14531 17.1998 5.74531 17.1998C7.04531 17.1998 8.14531 16.2998 8.44531 15.0998C8.84531 15.1998 9.24531 15.1998 9.64531 15.1998H16.6453C16.9453 16.2998 18.0453 17.1998 19.2453 17.1998C20.7453 17.1998 22.0453 15.9998 22.0453 14.4998C22.0453 14.2998 22.0453 14.0998 21.9453 13.8998L22.8453 12.9998C23.0453 12.7998 23.1453 12.3998 22.9453 12.0998C22.9453 12.0998 21.9453 10.2998 19.9453 9.7998C19.8453 6.9998 18.8453 4.6998 17.9453 3.0998H18.7453C18.8453 3.0998 19.0453 2.9998 19.0453 2.7998V1.5998C19.0453 1.4998 18.9453 1.2998 18.7453 1.2998H17.3453C17.1453 1.2998 16.8453 1.3998 16.7453 1.4998C16.5453 1.1998 16.4453 1.0998 16.3453 0.999805C16.0453 0.899805 15.9453 0.799805 15.7453 0.799805ZM3.94531 3.2998H5.44531V4.5998C5.44531 4.9998 5.74531 5.3998 6.14531 5.3998C6.64531 5.2998 6.94531 4.9998 6.94531 4.5998V3.2998H8.44531V7.2998H4.34531C4.24531 7.2998 4.24531 7.2998 4.14531 7.2998H3.94531V3.2998ZM17.3453 5.3998C17.9453 6.7998 18.4453 8.5998 18.4453 10.5998C18.4453 10.9998 18.7453 11.2998 19.2453 11.3998C20.3453 11.3998 20.9453 12.0998 21.2453 12.5998L20.9453 12.7998C20.8453 12.7998 20.7453 12.7998 20.7453 12.7998H18.7453C17.9453 12.7998 17.3453 13.1998 16.9453 13.5998C16.8453 13.6998 16.8453 13.6998 16.8453 13.7998H9.54531C6.34531 13.7998 3.84531 11.1998 3.54531 10.7998C3.64531 9.6998 4.24531 8.9998 4.54531 8.7998H8.54531V10.0998C8.54531 11.2998 9.54531 12.3998 10.8453 12.3998H14.3453C15.2453 12.3998 16.1453 11.9998 16.7453 11.0998C17.3453 10.2998 17.6453 9.0998 17.6453 7.5998C17.4453 6.7998 17.4453 6.0998 17.3453 5.3998ZM4.74531 13.7998C5.34531 14.1998 6.14531 14.5998 6.94531 14.7998C6.84531 15.3998 6.34531 15.7998 5.74531 15.7998C5.04531 15.7998 4.44531 15.1998 4.44531 14.4998C4.44531 14.2998 4.54531 13.9998 4.74531 13.7998ZM18.7453 14.2998H20.4453C20.4453 14.3998 20.4453 14.4998 20.4453 14.5998C20.4453 15.2998 19.8453 15.8998 19.1453 15.8998C18.4453 15.8998 17.9453 15.3998 17.9453 14.7998C17.9453 14.7998 17.9453 14.6998 18.0453 14.6998C18.1453 14.3998 18.2453 14.2998 18.7453 14.2998Z" fill="#212629"/>
</svg>
