<svg width="21" height="21" viewBox="0 0 21 21" fill="none" xmlns="http://www.w3.org/2000/svg">
<path d="M10.0225 0.673828C4.52246 0.673828 0.0224609 5.17383 0.0224609 10.6738C0.0224609 16.1738 4.52246 20.6738 10.0225 20.6738C15.5225 20.6738 20.0225 16.1738 20.0225 10.6738C20.0225 5.17383 15.5225 0.673828 10.0225 0.673828ZM10.0225 2.17383C14.7225 2.17383 18.5225 5.97383 18.5225 10.6738C18.5225 15.3738 14.7225 19.1738 10.0225 19.1738C5.32246 19.1738 1.52246 15.3738 1.52246 10.6738C1.52246 5.97383 5.32246 2.17383 10.0225 2.17383ZM7.72246 6.27383C7.12246 6.27383 6.52246 6.87383 6.52246 7.47383V13.7738C6.52246 14.6738 7.52246 15.2738 8.32246 14.8738L14.3225 11.6738C15.2225 11.2738 15.2225 9.87383 14.3225 9.47383L8.32246 6.27383C8.12246 6.27383 7.92246 6.27383 7.72246 6.27383ZM8.02246 7.87383L13.2225 10.6738L8.02246 13.4738V7.87383Z" fill="#FE9102"/>
</svg>
