<svg width="22" height="22" viewBox="0 0 22 22" fill="none" xmlns="http://www.w3.org/2000/svg">
<path d="M17.181 0.993652C16.781 0.993652 16.481 1.29365 16.481 1.79365C16.481 1.99365 16.581 2.19365 16.681 2.29365L18.381 3.99365H12.681C12.281 3.99365 11.981 4.29365 11.981 4.69365C11.981 5.09365 12.281 5.49365 12.681 5.49365H18.381L16.681 7.19365C16.381 7.49365 16.381 7.99365 16.681 8.29365C16.981 8.59365 17.481 8.59365 17.781 8.29365L20.781 5.29365C21.081 4.99365 21.081 4.49365 20.781 4.19365L17.781 1.19365C17.581 1.09365 17.381 0.993652 17.181 0.993652ZM5.98096 0.993652C5.68096 0.993652 5.38096 0.993652 4.98096 1.09365L3.78096 1.49365C2.58096 1.79365 1.58096 2.79365 1.28096 4.09365C0.480957 6.89365 1.38096 10.1937 3.58096 13.9937C5.78096 17.6937 8.28096 20.0937 11.081 20.8937C12.381 21.1937 13.781 20.8937 14.681 19.9937L15.581 19.1937C16.581 18.2937 16.781 16.6937 15.881 15.5937L14.581 13.7937C13.881 12.8937 12.681 12.3937 11.481 12.7937L9.48096 13.3937C9.38096 13.3937 9.18096 13.2937 8.98096 13.1937C8.68096 12.8937 8.18096 12.3937 7.78096 11.5937C7.38096 10.6937 7.18096 10.0937 7.08096 9.79365C6.98096 9.39365 6.98096 9.39365 6.98096 9.29365C6.98096 9.19365 6.98096 9.19365 7.08096 9.19365L8.58096 7.79365C9.48096 6.99365 9.78096 5.69365 9.28096 4.59365L8.38096 2.59365C7.88096 1.69365 6.98096 1.09365 5.98096 0.993652ZM5.88096 2.49365C6.38096 2.49365 6.78096 2.79365 6.98096 3.19365L7.88096 5.19365C8.08096 5.69365 7.98096 6.19365 7.58096 6.59365L6.08096 7.99365C5.78096 8.29365 5.58096 8.69365 5.48096 9.09365C5.48096 9.19365 5.48096 9.59365 5.58096 10.0937C5.68096 10.5937 5.98096 11.2937 6.58096 12.1937C7.08096 13.0937 7.58096 13.6937 8.08096 14.1937C8.28096 14.3937 8.98096 15.0937 9.98096 14.7937L11.981 14.1937C12.481 13.9937 13.081 14.1937 13.381 14.6937L14.681 16.4937C15.081 16.9937 14.981 17.6937 14.481 18.0937L13.581 18.8937C12.981 19.3937 12.181 19.5937 11.381 19.3937C9.08096 18.7937 6.78096 16.6937 4.78096 13.1937C2.78096 9.69365 2.08096 6.69365 2.68096 4.49365C2.88096 3.79365 3.48096 3.09365 4.28096 2.89365L5.48096 2.49365C5.58096 2.49365 5.78096 2.49365 5.88096 2.49365Z" fill="#212629"/>
</svg>
