<svg width="22" height="20" viewBox="0 0 22 20" fill="none" xmlns="http://www.w3.org/2000/svg">
<path d="M11.0295 0C5.52955 0 1.02955 4.5 1.02955 10C1.02955 11.6 1.42955 13.2 2.12955 14.5L1.02955 18.4C0.729549 19.3 1.62955 20.2 2.52955 19.9L6.42955 18.8C7.82955 19.6 9.42955 20 11.0295 20C16.5295 20 21.0295 15.5 21.0295 10C21.0295 4.5 16.5295 0 11.0295 0ZM11.0295 1.5C15.7295 1.5 19.5295 5.3 19.5295 10C19.5295 14.7 15.7295 18.5 11.0295 18.5C9.52955 18.5 8.12955 18.1 6.92955 17.4C6.72955 17.3 6.52955 17.3 6.32955 17.3L2.62955 18.3L3.62955 14.6C3.72955 14.4 3.62955 14.2 3.52955 14C2.82955 12.8 2.42955 11.4 2.42955 9.9C2.52955 5.3 6.32955 1.5 11.0295 1.5ZM7.62955 5.5C7.52955 5.5 7.22955 5.6 7.02955 5.8C6.82955 6 6.12955 6.6 6.12955 7.8C6.12955 9 7.02955 10.1 7.12955 10.3C7.22955 10.5 8.82955 12.9 11.2295 13.9C13.2295 14.7 13.6295 14.5 14.1295 14.5C14.5295 14.5 15.5295 13.9 15.7295 13.4C15.9295 12.8 15.9295 12.4 15.8295 12.3C15.7295 12.2 15.6295 12.1 15.3295 12C15.1295 11.9 13.9295 11.3 13.7295 11.2C13.5295 11.1 13.3295 11.1 13.2295 11.3C13.0295 11.5 12.6295 12.1 12.4295 12.2C12.3295 12.4 12.1295 12.4 11.9295 12.3C11.7295 12.2 10.9295 11.9 10.0295 11.1C9.32955 10.5 8.82955 9.7 8.72955 9.4C8.52955 9.2 8.72955 9 8.82955 8.9C8.92955 8.8 9.02955 8.6 9.12955 8.5C9.22955 8.4 9.32955 8.3 9.32955 8.1C9.42955 7.9 9.32955 7.8 9.32955 7.7C9.32955 7.6 8.82955 6.4 8.62955 5.9C8.42955 5.5 8.22955 5.5 8.12955 5.5C7.92955 5.5 7.82955 5.5 7.62955 5.5Z" fill="#25D366"/>
</svg>
